Trimmed_running_0600000001_forces_filt50Hz.mot
version=1
nRows=47
nColumns=19
inDegrees=yes
endheader
time	R_ground_force_vx	R_ground_force_vy	R_ground_force_vz	R_ground_force_px	R_ground_force_py	R_ground_force_pz	R_ground_torque_x	R_ground_torque_y	R_ground_torque_z	L_ground_force_vx	L_ground_force_vy	L_ground_force_vz	L_ground_force_px	L_ground_force_py	L_ground_force_pz	L_ground_torque_x	L_ground_torque_y	L_ground_torque_z	
2.374500	-134.718037	2129.370505	175.095364	  1.151234	  0.000000	 -0.313627	  0.000000	-29.530657	  0.000000	  0.000000	  0.000000	  0.000000	  0.793488	  0.000000	 -0.427091	  0.000000	  0.000000	  0.000000
2.375000	-132.639579	2129.119084	164.592404	  1.148737	  0.000000	 -0.313262	  0.000000	-30.814768	  0.000000	  0.000000	  0.000000	  0.000000	  0.795253	  0.000000	 -0.427083	  0.000000	  0.000000	  0.000000
2.375500	-132.603376	2128.497547	154.450272	  1.146036	  0.000000	 -0.312865	  0.000000	-31.412050	  0.000000	  0.000000	  0.000000	  0.000000	  0.797046	  0.000000	 -0.427259	  0.000000	  0.000000	  0.000000
2.376000	-134.425884	2127.423961	144.657816	  1.143144	  0.000000	 -0.312444	  0.000000	-31.319889	  0.000000	  0.000000	  0.000000	  0.000000	  0.798840	  0.000000	 -0.427434	  0.000000	  0.000000	  0.000000
2.376500	-137.847174	2125.837803	135.192012	  1.140083	  0.000000	 -0.312013	  0.000000	-30.550057	  0.000000	  0.000000	  0.000000	  0.000000	  0.800633	  0.000000	 -0.427610	  0.000000	  0.000000	  0.000000
2.377000	-142.541742	2123.702717	126.021250	  1.136885	  0.000000	 -0.311586	  0.000000	-29.128113	  0.000000	  0.000000	  0.000000	  0.000000	  0.802427	  0.000000	 -0.427786	  0.000000	  0.000000	  0.000000
2.377500	-148.132665	2121.006531	117.111437	  1.133585	  0.000000	 -0.311180	  0.000000	-27.092436	  0.000000	  0.000000	  0.000000	  0.000000	  0.804221	  0.000000	 -0.427961	  0.000000	  0.000000	  0.000000
2.378000	-154.208239	2117.759611	108.433907	  1.130228	  0.000000	 -0.310810	  0.000000	-24.493050	  0.000000	  0.000000	  0.000000	  0.000000	  0.806014	  0.000000	 -0.428137	  0.000000	  0.000000	  0.000000
2.378500	-160.340070	2113.992798	 99.973682	  1.126860	  0.000000	 -0.310489	  0.000000	-21.390271	  0.000000	  0.000000	  0.000000	  0.000000	  0.807808	  0.000000	 -0.428313	  0.000000	  0.000000	  0.000000
2.379000	-166.101476	2109.755883	 91.736386	  1.123530	  0.000000	 -0.310228	  0.000000	-17.852864	  0.000000	  0.000000	  0.000000	  0.000000	  0.809602	  0.000000	 -0.428488	  0.000000	  0.000000	  0.000000
2.379500	-171.085132	2105.116944	 83.752309	  1.120283	  0.000000	 -0.310031	  0.000000	-13.955655	  0.000000	  0.000000	  0.000000	  0.000000	  0.811395	  0.000000	 -0.428664	  0.000000	  0.000000	  0.000000
2.380000	-174.918996	2100.162050	 76.076675	  1.117162	  0.000000	 -0.309897	  0.000000	 -9.776692	  0.000000	  0.000000	  0.000000	  0.000000	  0.813189	  0.000000	 -0.428840	  0.000000	  0.000000	  0.000000
2.380500	-177.279737	2094.994583	 68.785908	  1.114199	  0.000000	 -0.309820	  0.000000	 -5.394279	  0.000000	  0.000000	  0.000000	  0.000000	  0.815086	  0.000000	 -0.428864	  0.000000	  0.000000	  0.000000
2.381000	-177.903185	2089.733369	 61.970597	  1.111416	  0.000000	 -0.309789	  0.000000	 -0.884366	  0.000000	  0.000000	  0.000000	  0.000000	  0.816983	  0.000000	 -0.428888	  0.000000	  0.000000	  0.000000
2.381500	-176.591625	2084.509025	 55.726398	  1.108824	  0.000000	 -0.309789	  0.000000	  3.681235	  0.000000	  0.000000	  0.000000	  0.000000	  0.818880	  0.000000	 -0.428913	  0.000000	  0.000000	  0.000000
2.382000	-173.218130	2079.458303	 50.144540	  1.106418	  0.000000	 -0.309806	  0.000000	  8.235439	  0.000000	  0.000000	  0.000000	  0.000000	  0.820776	  0.000000	 -0.428937	  0.000000	  0.000000	  0.000000
2.382500	-167.728215	2074.716661	 45.303516	  1.104182	  0.000000	 -0.309824	  0.000000	 12.715219	  0.000000	  0.000000	  0.000000	  0.000000	  0.822673	  0.000000	 -0.428961	  0.000000	  0.000000	  0.000000
2.383000	-160.139122	2070.409717	 41.263197	  1.102086	  0.000000	 -0.309829	  0.000000	 17.059942	  0.000000	  0.000000	  0.000000	  0.000000	  0.824570	  0.000000	 -0.428986	  0.000000	  0.000000	  0.000000
2.383500	-150.536898	2066.644592	 38.061966	  1.100090	  0.000000	 -0.309810	  0.000000	 21.209225	  0.000000	  0.000000	  0.000000	  0.000000	  0.826467	  0.000000	 -0.429010	  0.000000	  0.000000	  0.000000
2.384000	-139.071317	2063.502244	 35.716554	  1.098147	  0.000000	 -0.309758	  0.000000	 25.100901	  0.000000	  0.000000	  0.000000	  0.000000	  0.828364	  0.000000	 -0.429034	  0.000000	  0.000000	  0.000000
2.384500	-125.948624	2061.031690	 34.223725	  1.096208	  0.000000	 -0.309667	  0.000000	 28.669582	  0.000000	  0.000000	  0.000000	  0.000000	  0.830261	  0.000000	 -0.429059	  0.000000	  0.000000	  0.000000
2.385000	-111.422081	2059.246494	 33.562626	  1.094221	  0.000000	 -0.309531	  0.000000	 31.846237	  0.000000	  0.000000	  0.000000	  0.000000	  0.832157	  0.000000	 -0.429083	  0.000000	  0.000000	  0.000000
2.385500	-95.780386	2058.123459	 33.696826	  1.092137	  0.000000	 -0.309349	  0.000000	 34.558932	  0.000000	  0.000000	  0.000000	  0.000000	  0.834195	  0.000000	 -0.428960	  0.000000	  0.000000	  0.000000
2.386000	-79.334347	2057.602900	 34.575612	  1.089910	  0.000000	 -0.309119	  0.000000	 36.734714	  0.000000	  0.000000	  0.000000	  0.000000	  0.836232	  0.000000	 -0.428838	  0.000000	  0.000000	  0.000000
2.386500	-62.402547	2057.590000	 36.134564	  1.087503	  0.000000	 -0.308843	  0.000000	 38.302450	  0.000000	  0.000000	  0.000000	  0.000000	  0.838270	  0.000000	 -0.428715	  0.000000	  0.000000	  0.000000
2.387000	-45.297126	2057.957219	 38.295830	  1.084886	  0.000000	 -0.308525	  0.000000	 39.196374	  0.000000	  0.000000	  0.000000	  0.000000	  0.840307	  0.000000	 -0.428593	  0.000000	  0.000000	  0.000000
2.387500	-28.310890	2058.548064	 40.968648	  1.082040	  0.000000	 -0.308170	  0.000000	 39.360016	  0.000000	  0.000000	  0.000000	  0.000000	  0.842344	  0.000000	 -0.428470	  0.000000	  0.000000	  0.000000
2.388000	-11.706862	2059.182787	 44.050587	  1.078958	  0.000000	 -0.307787	  0.000000	 38.750140	  0.000000	  0.000000	  0.000000	  0.000000	  0.844382	  0.000000	 -0.428347	  0.000000	  0.000000	  0.000000
2.388500	  4.288932	2059.666009	 47.429889	  1.075641	  0.000000	 -0.307384	  0.000000	 37.340207	  0.000000	  0.000000	  0.000000	  0.000000	  0.846419	  0.000000	 -0.428225	  0.000000	  0.000000	  0.000000
2.389000	 19.491086	2059.795478	 50.989067	  1.072105	  0.000000	 -0.306973	  0.000000	 35.122868	  0.000000	  0.000000	  0.000000	  0.000000	  0.848456	  0.000000	 -0.428102	  0.000000	  0.000000	  0.000000
2.389500	 33.755005	2059.371140	 54.609601	  1.068374	  0.000000	 -0.306563	  0.000000	 32.111103	  0.000000	  0.000000	  0.000000	  0.000000	  0.850494	  0.000000	 -0.427979	  0.000000	  0.000000	  0.000000
2.390000	 46.974391	2058.203719	 58.177199	  1.064480	  0.000000	 -0.306162	  0.000000	 28.337896	  0.000000	  0.000000	  0.000000	  0.000000	  0.852531	  0.000000	 -0.427857	  0.000000	  0.000000	  0.000000
2.390500	 59.077065	2056.122107	 61.586823	  1.060465	  0.000000	 -0.305779	  0.000000	 23.854650	  0.000000	  0.000000	  0.000000	  0.000000	  0.854726	  0.000000	 -0.427784	  0.000000	  0.000000	  0.000000
2.391000	 70.020235	2052.979370	 64.746630	  1.056373	  0.000000	 -0.305418	  0.000000	 18.728932	  0.000000	  0.000000	  0.000000	  0.000000	  0.856921	  0.000000	 -0.427712	  0.000000	  0.000000	  0.000000
2.391500	 79.786092	2048.657606	 67.580199	  1.052257	  0.000000	 -0.305082	  0.000000	 13.042118	  0.000000	  0.000000	  0.000000	  0.000000	  0.859115	  0.000000	 -0.427639	  0.000000	  0.000000	  0.000000
2.392000	 88.378104	2043.071983	 70.026845	  1.048165	  0.000000	 -0.304773	  0.000000	  6.887359	  0.000000	  0.000000	  0.000000	  0.000000	  0.861310	  0.000000	 -0.427566	  0.000000	  0.000000	  0.000000
2.392500	 95.818046	2036.174040	 72.040322	  1.044151	  0.000000	 -0.304492	  0.000000	  0.368073	  0.000000	  0.000000	  0.000000	  0.000000	  0.863505	  0.000000	 -0.427494	  0.000000	  0.000000	  0.000000
2.393000	102.143600	2027.953951	 73.586574	  1.040261	  0.000000	 -0.304238	  0.000000	 -6.403108	  0.000000	  0.000000	  0.000000	  0.000000	  0.865699	  0.000000	 -0.427421	  0.000000	  0.000000	  0.000000
2.393500	107.406297	2018.441385	 74.641381	  1.036539	  0.000000	 -0.304013	  0.000000	-13.305169	  0.000000	  0.000000	  0.000000	  0.000000	  0.867894	  0.000000	 -0.427349	  0.000000	  0.000000	  0.000000
2.394000	111.669732	2007.704634	 75.188682	  1.033022	  0.000000	 -0.303818	  0.000000	-20.209648	  0.000000	  0.000000	  0.000000	  0.000000	  0.870089	  0.000000	 -0.427276	  0.000000	  0.000000	  0.000000
2.394500	115.008049	1995.847778	 75.220185	  1.029739	  0.000000	 -0.303657	  0.000000	-26.981971	  0.000000	  0.000000	  0.000000	  0.000000	  0.872284	  0.000000	 -0.427204	  0.000000	  0.000000	  0.000000
2.395000	117.504737	1983.005829	 74.736536	  1.026713	  0.000000	 -0.303532	  0.000000	-33.483283	  0.000000	  0.000000	  0.000000	  0.000000	  0.874478	  0.000000	 -0.427131	  0.000000	  0.000000	  0.000000
2.395500	119.251730	1969.337969	 73.749816	  1.023955	  0.000000	 -0.303448	  0.000000	-39.572851	  0.000000	  0.000000	  0.000000	  0.000000	  0.876798	  0.000000	 -0.427083	  0.000000	  0.000000	  0.000000
2.396000	120.348723	1955.019382	 72.286522	  1.021470	  0.000000	 -0.303406	  0.000000	-45.111118	  0.000000	  0.000000	  0.000000	  0.000000	  0.879119	  0.000000	 -0.427035	  0.000000	  0.000000	  0.000000
2.396500	120.902552	1940.232472	 70.389922	  1.019257	  0.000000	 -0.303408	  0.000000	-49.963532	  0.000000	  0.000000	  0.000000	  0.000000	  0.881439	  0.000000	 -0.426987	  0.000000	  0.000000	  0.000000
2.397000	121.026521	1925.158414	 68.120558	  1.017304	  0.000000	 -0.303452	  0.000000	-54.005115	  0.000000	  0.000000	  0.000000	  0.000000	  0.883759	  0.000000	 -0.426939	  0.000000	  0.000000	  0.000000
2.397500	120.839648	1909.969740	 65.554194	  1.015597	  0.000000	 -0.303532	  0.000000	-57.125533	  0.000000	  0.000000	  0.000000	  0.000000	  0.886080	  0.000000	 -0.426891	  0.000000	  0.000000	  0.000000
